<?xml version="1.0" encoding="utf-8"?>
<!-- Generator: Adobe Illustrator 28.1.0, SVG Export Plug-In . SVG Version: 6.00 Build 0)  -->
<svg version="1.1" id="Layer_1" xmlns="http://www.w3.org/2000/svg" xmlns:xlink="http://www.w3.org/1999/xlink" x="0px" y="0px"
	 viewBox="0 0 891.02 265.59" style="enable-background:new 0 0 891.02 265.59;" xml:space="preserve">
<style type="text/css">
	.st0{fill:#149948;}
	.st1{fill:#FFFFFF;}
	.st2{fill:#231F20;}
</style>
<g>
	<g>
		<g>
			<path class="st0" d="M466.51,25.24c4.76,0,8.91,0.5,12.46,1.5c3.55,1,6.3,2.4,8.26,4.2c1.96,1.8,2.94,3.94,2.94,6.45
				c0,1.67-0.5,3.24-1.5,4.7c-1,1.46-2.46,2.19-4.38,2.19c-1.34,0-2.44-0.19-3.32-0.56c-0.88-0.38-1.65-0.85-2.32-1.44
				c-0.67-0.58-1.46-1.13-2.38-1.63c-0.84-0.5-2.11-0.9-3.82-1.19c-1.71-0.29-2.99-0.44-3.82-0.44c-4.26,0-7.87,0.92-10.83,2.75
				c-2.96,1.84-5.24,4.32-6.82,7.45c-1.59,3.13-2.38,6.74-2.38,10.83c0,4.01,0.81,7.58,2.44,10.71c1.63,3.13,3.88,5.62,6.76,7.45
				c2.88,1.84,6.2,2.75,9.95,2.75c2.09,0,3.88-0.12,5.38-0.38c1.5-0.25,2.75-0.63,3.76-1.13c1.17-0.67,2.21-1.38,3.13-2.13
				c0.92-0.75,2.3-1.13,4.13-1.13c2.17,0,3.84,0.69,5.01,2.07c1.17,1.38,1.75,3.07,1.75,5.07c0,2.09-1.17,3.99-3.51,5.7
				c-2.34,1.71-5.41,3.09-9.2,4.13c-3.8,1.04-7.91,1.57-12.33,1.57c-6.6,0-12.31-1.52-17.15-4.57c-4.84-3.05-8.58-7.2-11.21-12.46
				c-2.63-5.26-3.94-11.14-3.94-17.66c0-6.84,1.4-12.88,4.19-18.09c2.8-5.22,6.68-9.31,11.65-12.27
				C454.38,26.73,460.08,25.24,466.51,25.24z"/>
			<path class="st0" d="M537.01,25.24c6.01,0,10.58,1.29,13.71,3.88c3.13,2.59,5.28,6.03,6.45,10.33c1.17,4.3,1.75,9.08,1.75,14.34
				v32.06c0,2.17-0.71,3.99-2.13,5.45c-1.42,1.46-3.21,2.19-5.38,2.19c-2.17,0-3.97-0.73-5.38-2.19c-1.42-1.46-2.13-3.28-2.13-5.45
				V53.79c0-2.75-0.33-5.24-1-7.45c-0.67-2.21-1.88-3.99-3.63-5.32c-1.75-1.33-4.26-2-7.51-2c-3.17,0-5.88,0.67-8.14,2
				c-2.25,1.34-3.94,3.11-5.07,5.32c-1.13,2.21-1.69,4.7-1.69,7.45v32.06c0,2.17-0.71,3.99-2.13,5.45
				c-1.42,1.46-3.21,2.19-5.38,2.19c-2.17,0-3.97-0.73-5.38-2.19c-1.42-1.46-2.13-3.28-2.13-5.45V8.46c0-2.17,0.71-3.99,2.13-5.45
				c1.42-1.46,3.21-2.19,5.38-2.19c2.17,0,3.96,0.73,5.38,2.19c1.42,1.46,2.13,3.28,2.13,5.45v31.05l-1.88-0.38
				c0.75-1.42,1.79-2.94,3.13-4.57c1.33-1.63,2.96-3.15,4.88-4.57c1.92-1.42,4.05-2.57,6.39-3.44
				C531.7,25.68,534.25,25.24,537.01,25.24z"/>
			<path class="st0" d="M606.13,94.74c-7.1,0-13.25-1.48-18.47-4.45c-5.22-2.96-9.22-6.99-12.02-12.08
				c-2.8-5.09-4.2-10.85-4.2-17.28c0-7.51,1.52-13.92,4.57-19.22c3.05-5.3,7.03-9.37,11.96-12.21c4.92-2.84,10.14-4.26,15.65-4.26
				c4.26,0,8.28,0.88,12.08,2.63c3.8,1.75,7.16,4.15,10.08,7.2c2.92,3.05,5.24,6.57,6.95,10.58c1.71,4.01,2.57,8.26,2.57,12.77
				c-0.08,2-0.88,3.63-2.38,4.88c-1.5,1.25-3.26,1.88-5.26,1.88h-47.83l-3.76-12.52h45.95l-2.75,2.5v-3.38
				c-0.17-2.42-1.02-4.59-2.57-6.51c-1.54-1.92-3.46-3.44-5.76-4.57c-2.3-1.13-4.74-1.69-7.33-1.69c-2.5,0-4.84,0.33-7.01,1
				c-2.17,0.67-4.05,1.8-5.63,3.38c-1.59,1.59-2.84,3.71-3.76,6.39c-0.92,2.67-1.38,6.05-1.38,10.14c0,4.51,0.94,8.33,2.82,11.46
				s4.3,5.51,7.26,7.14c2.96,1.63,6.11,2.44,9.45,2.44c3.09,0,5.55-0.25,7.39-0.75c1.84-0.5,3.32-1.11,4.45-1.82
				c1.13-0.71,2.15-1.31,3.07-1.82c1.5-0.75,2.92-1.13,4.26-1.13c1.83,0,3.36,0.63,4.57,1.88c1.21,1.25,1.82,2.71,1.82,4.38
				c0,2.25-1.17,4.3-3.51,6.14c-2.17,1.84-5.22,3.44-9.14,4.82C614.35,94.05,610.3,94.74,606.13,94.74z"/>
			<path class="st0" d="M683.63,25.24c6.18,0,10.87,1.29,14.09,3.88c3.21,2.59,5.42,6.03,6.64,10.33c1.21,4.3,1.82,9.08,1.82,14.34
				v32.06c0,2.17-0.71,3.99-2.13,5.45c-1.42,1.46-3.21,2.19-5.38,2.19c-2.17,0-3.97-0.73-5.38-2.19c-1.42-1.46-2.13-3.28-2.13-5.45
				V53.79c0-2.75-0.36-5.24-1.06-7.45c-0.71-2.21-1.98-3.99-3.82-5.32c-1.84-1.33-4.47-2-7.89-2c-3.34,0-6.16,0.67-8.45,2
				c-2.3,1.34-4.05,3.11-5.26,5.32c-1.21,2.21-1.82,4.7-1.82,7.45v32.06c0,2.17-0.71,3.99-2.13,5.45c-1.42,1.46-3.21,2.19-5.38,2.19
				c-2.17,0-3.97-0.73-5.38-2.19c-1.42-1.46-2.13-3.28-2.13-5.45V34.13c0-2.17,0.71-3.99,2.13-5.45c1.42-1.46,3.21-2.19,5.38-2.19
				c2.17,0,3.96,0.73,5.38,2.19c1.42,1.46,2.13,3.28,2.13,5.45v5.38l-1.88-0.38c0.75-1.42,1.83-2.94,3.26-4.57
				c1.42-1.63,3.09-3.15,5.01-4.57c1.92-1.42,4.09-2.57,6.51-3.44C678.16,25.68,680.79,25.24,683.63,25.24z"/>
			<path class="st0" d="M758.26,25.24c6.18,0,10.87,1.29,14.09,3.88c3.21,2.59,5.43,6.03,6.64,10.33c1.21,4.3,1.82,9.08,1.82,14.34
				v32.06c0,2.17-0.71,3.99-2.13,5.45c-1.42,1.46-3.21,2.19-5.38,2.19c-2.17,0-3.97-0.73-5.38-2.19c-1.42-1.46-2.13-3.28-2.13-5.45
				V53.79c0-2.75-0.36-5.24-1.06-7.45c-0.71-2.21-1.98-3.99-3.82-5.32c-1.84-1.33-4.47-2-7.89-2c-3.34,0-6.16,0.67-8.45,2
				c-2.3,1.34-4.05,3.11-5.26,5.32c-1.21,2.21-1.82,4.7-1.82,7.45v32.06c0,2.17-0.71,3.99-2.13,5.45c-1.42,1.46-3.21,2.19-5.38,2.19
				c-2.17,0-3.97-0.73-5.38-2.19c-1.42-1.46-2.13-3.28-2.13-5.45V34.13c0-2.17,0.71-3.99,2.13-5.45c1.42-1.46,3.21-2.19,5.38-2.19
				c2.17,0,3.96,0.73,5.38,2.19c1.42,1.46,2.13,3.28,2.13,5.45v5.38l-1.88-0.38c0.75-1.42,1.84-2.94,3.26-4.57
				c1.42-1.63,3.09-3.15,5.01-4.57c1.92-1.42,4.09-2.57,6.51-3.44C752.79,25.68,755.42,25.24,758.26,25.24z"/>
			<path class="st0" d="M851.29,25.24c2.17,0,3.96,0.71,5.38,2.13c1.42,1.42,2.13,3.26,2.13,5.51v52.97c0,2.17-0.71,3.99-2.13,5.45
				c-1.42,1.46-3.21,2.19-5.38,2.19c-2.17,0-3.97-0.73-5.38-2.19c-1.42-1.46-2.13-3.28-2.13-5.45v-6.14l2.75,1.13
				c0,1.09-0.58,2.4-1.75,3.94c-1.17,1.54-2.75,3.07-4.76,4.57c-2,1.5-4.36,2.78-7.08,3.82c-2.71,1.04-5.66,1.57-8.83,1.57
				c-5.76,0-10.98-1.48-15.65-4.45c-4.68-2.96-8.37-7.05-11.08-12.27c-2.71-5.22-4.07-11.21-4.07-17.97
				c0-6.84,1.36-12.88,4.07-18.09c2.71-5.22,6.36-9.31,10.96-12.27c4.59-2.96,9.68-4.44,15.28-4.44c3.59,0,6.89,0.54,9.89,1.63
				c3.01,1.09,5.61,2.46,7.83,4.13c2.21,1.67,3.92,3.36,5.13,5.07c1.21,1.71,1.82,3.15,1.82,4.32l-4.51,1.63v-9.14
				c0-2.17,0.71-3.99,2.13-5.45C847.33,25.97,849.12,25.24,851.29,25.24z M826,80.96c3.67,0,6.89-0.92,9.64-2.75
				c2.75-1.83,4.9-4.34,6.45-7.51c1.54-3.17,2.32-6.72,2.32-10.64c0-4.01-0.77-7.59-2.32-10.77c-1.55-3.17-3.69-5.68-6.45-7.51
				c-2.75-1.83-5.97-2.75-9.64-2.75c-3.59,0-6.76,0.92-9.52,2.75c-2.75,1.84-4.9,4.34-6.45,7.51c-1.55,3.17-2.32,6.76-2.32,10.77
				c0,3.92,0.77,7.47,2.32,10.64c1.54,3.17,3.69,5.68,6.45,7.51C819.24,80.05,822.41,80.96,826,80.96z"/>
			<path class="st0" d="M881.6,18.36c-2.84,0-4.84-0.46-6.01-1.38c-1.17-0.92-1.75-2.55-1.75-4.88V9.72c0-2.42,0.65-4.07,1.94-4.95
				c1.29-0.88,3.28-1.31,5.95-1.31c2.92,0,4.97,0.46,6.14,1.38c1.17,0.92,1.75,2.55,1.75,4.88v2.38c0,2.42-0.63,4.07-1.88,4.95
				C886.48,17.92,884.43,18.36,881.6,18.36z M889.23,85.85c0,2.17-0.71,3.99-2.13,5.45c-1.42,1.46-3.21,2.19-5.38,2.19
				c-2.17,0-3.97-0.73-5.38-2.19c-1.42-1.46-2.13-3.28-2.13-5.45V34.13c0-2.17,0.71-3.99,2.13-5.45c1.42-1.46,3.21-2.19,5.38-2.19
				c2.17,0,3.96,0.73,5.38,2.19c1.42,1.46,2.13,3.28,2.13,5.45V85.85z"/>
			<path class="st1" d="M470.74,127.66c5.01,0,9.38,0.53,13.12,1.58c3.73,1.05,6.63,2.53,8.7,4.41c2.06,1.89,3.1,4.15,3.1,6.79
				c0,1.76-0.53,3.41-1.58,4.94c-1.05,1.54-2.59,2.31-4.61,2.31c-1.41,0-2.57-0.2-3.49-0.59c-0.92-0.4-1.74-0.9-2.44-1.52
				c-0.7-0.62-1.54-1.19-2.5-1.71c-0.88-0.53-2.22-0.94-4.02-1.25c-1.8-0.31-3.14-0.46-4.02-0.46c-4.48,0-8.28,0.97-11.4,2.9
				c-3.12,1.93-5.52,4.55-7.18,7.84c-1.67,3.29-2.5,7.1-2.5,11.4c0,4.22,0.86,7.97,2.57,11.27s4.09,5.91,7.12,7.84
				c3.03,1.93,6.52,2.9,10.48,2.9c2.2,0,4.09-0.13,5.67-0.39c1.58-0.26,2.9-0.66,3.95-1.19c1.23-0.7,2.33-1.45,3.29-2.24
				c0.97-0.79,2.42-1.19,4.35-1.19c2.28,0,4.04,0.72,5.27,2.17c1.23,1.45,1.84,3.23,1.84,5.34c0,2.2-1.23,4.2-3.69,6
				c-2.46,1.8-5.69,3.25-9.69,4.35c-4,1.1-8.33,1.65-12.98,1.65c-6.94,0-12.96-1.6-18.06-4.81c-5.1-3.21-9.03-7.58-11.8-13.11
				c-2.77-5.54-4.15-11.73-4.15-18.59c0-7.2,1.47-13.55,4.42-19.04c2.94-5.49,7.03-9.8,12.26-12.92
				C457.98,129.23,463.97,127.66,470.74,127.66z"/>
			<path class="st1" d="M560.24,128.98c2.28,0,4.17,0.77,5.67,2.31c1.49,1.54,2.24,3.45,2.24,5.73v56.02
				c0,8.08-1.52,14.52-4.55,19.31c-3.03,4.79-7.1,8.24-12.19,10.35c-5.1,2.11-10.81,3.16-17.13,3.16c-2.81,0-5.8-0.22-8.96-0.66
				s-5.76-1.1-7.78-1.98c-2.64-1.14-4.46-2.57-5.47-4.28c-1.01-1.71-1.21-3.54-0.59-5.47c0.79-2.55,2.06-4.28,3.82-5.21
				c1.76-0.92,3.6-1.03,5.54-0.33c1.4,0.44,3.25,1.12,5.54,2.04c2.28,0.92,4.92,1.38,7.91,1.38c4.04,0,7.4-0.55,10.08-1.65
				c2.68-1.1,4.7-2.95,6.06-5.54c1.36-2.59,2.04-6.13,2.04-10.61v-8.83l2.77,3.16c-1.5,2.9-3.36,5.29-5.6,7.18
				c-2.24,1.89-4.9,3.32-7.97,4.28c-3.08,0.97-6.59,1.45-10.54,1.45c-4.66,0-8.72-1.08-12.19-3.23c-3.47-2.15-6.17-5.14-8.11-8.96
				c-1.93-3.82-2.9-8.19-2.9-13.11v-38.49c0-2.28,0.75-4.19,2.24-5.73c1.49-1.54,3.38-2.31,5.67-2.31c2.28,0,4.17,0.77,5.67,2.31
				c1.49,1.54,2.24,3.45,2.24,5.73v33.74c0,5.71,1.25,9.73,3.76,12.06c2.5,2.33,6,3.49,10.48,3.49c3.08,0,5.67-0.59,7.78-1.78
				c2.11-1.19,3.73-2.94,4.88-5.27c1.14-2.33,1.71-5.16,1.71-8.5v-33.74c0-2.28,0.75-4.19,2.24-5.73
				C556.06,129.75,557.95,128.98,560.24,128.98z"/>
			<path class="st1" d="M615.33,127.66c5.01,0,9.38,0.53,13.11,1.58c3.73,1.05,6.63,2.53,8.7,4.41c2.06,1.89,3.1,4.15,3.1,6.79
				c0,1.76-0.53,3.41-1.58,4.94c-1.05,1.54-2.59,2.31-4.61,2.31c-1.41,0-2.57-0.2-3.49-0.59c-0.92-0.4-1.74-0.9-2.44-1.52
				c-0.7-0.62-1.54-1.19-2.5-1.71c-0.88-0.53-2.22-0.94-4.02-1.25c-1.8-0.31-3.14-0.46-4.02-0.46c-4.48,0-8.28,0.97-11.4,2.9
				c-3.12,1.93-5.52,4.55-7.18,7.84c-1.67,3.29-2.5,7.1-2.5,11.4c0,4.22,0.86,7.97,2.57,11.27c1.71,3.29,4.09,5.91,7.12,7.84
				c3.03,1.93,6.52,2.9,10.48,2.9c2.2,0,4.09-0.13,5.67-0.39c1.58-0.26,2.9-0.66,3.95-1.19c1.23-0.7,2.33-1.45,3.29-2.24
				c0.97-0.79,2.42-1.19,4.35-1.19c2.28,0,4.04,0.72,5.27,2.17c1.23,1.45,1.85,3.23,1.85,5.34c0,2.2-1.23,4.2-3.69,6
				c-2.46,1.8-5.69,3.25-9.69,4.35c-4,1.1-8.33,1.65-12.98,1.65c-6.94,0-12.96-1.6-18.06-4.81c-5.1-3.21-9.03-7.58-11.8-13.11
				c-2.77-5.54-4.15-11.73-4.15-18.59c0-7.2,1.47-13.55,4.42-19.04c2.94-5.49,7.03-9.8,12.26-12.92
				C602.57,129.23,608.56,127.66,615.33,127.66z"/>
			<path class="st1" d="M669.64,191.46c0,2.29-0.77,4.2-2.31,5.73c-1.54,1.54-3.45,2.31-5.73,2.31c-2.2,0-4.04-0.77-5.54-2.31
				c-1.5-1.54-2.24-3.45-2.24-5.73V110c0-2.28,0.77-4.19,2.31-5.73c1.54-1.54,3.45-2.31,5.73-2.31c2.28,0,4.15,0.77,5.6,2.31
				c1.45,1.54,2.17,3.45,2.17,5.73V191.46z"/>
			<path class="st1" d="M694.94,120.42c-2.99,0-5.1-0.48-6.33-1.45c-1.23-0.97-1.85-2.68-1.85-5.14v-2.5c0-2.55,0.68-4.28,2.04-5.21
				c1.36-0.92,3.45-1.38,6.26-1.38c3.08,0,5.23,0.48,6.46,1.45c1.23,0.97,1.85,2.68,1.85,5.14v2.5c0,2.55-0.66,4.28-1.98,5.21
				C700.08,119.95,697.93,120.42,694.94,120.42z M702.98,191.46c0,2.29-0.75,4.2-2.24,5.73c-1.5,1.54-3.38,2.31-5.67,2.31
				c-2.29,0-4.17-0.77-5.67-2.31c-1.5-1.54-2.24-3.45-2.24-5.73v-54.44c0-2.28,0.75-4.19,2.24-5.73c1.49-1.54,3.38-2.31,5.67-2.31
				c2.28,0,4.17,0.77,5.67,2.31c1.49,1.54,2.24,3.45,2.24,5.73V191.46z"/>
			<path class="st1" d="M715.11,188.56c-0.88-1.23-1.27-2.81-1.19-4.75c0.09-1.93,1.23-3.6,3.43-5.01c1.4-0.88,2.9-1.25,4.48-1.12
				c1.58,0.13,3.12,0.95,4.61,2.44c2.55,2.55,5.23,4.53,8.04,5.93c2.81,1.41,6.33,2.11,10.54,2.11c1.32-0.09,2.77-0.28,4.35-0.59
				c1.58-0.31,2.97-1.01,4.15-2.11c1.19-1.1,1.78-2.79,1.78-5.07c0-1.93-0.66-3.47-1.98-4.61s-3.05-2.11-5.21-2.9
				c-2.15-0.79-4.55-1.54-7.18-2.24c-2.72-0.79-5.52-1.67-8.37-2.64c-2.86-0.97-5.47-2.22-7.84-3.76c-2.37-1.54-4.31-3.58-5.8-6.13
				c-1.5-2.55-2.24-5.75-2.24-9.62c0-4.39,1.23-8.12,3.69-11.2c2.46-3.07,5.64-5.45,9.56-7.12c3.91-1.67,8.02-2.5,12.32-2.5
				c2.72,0,5.58,0.33,8.57,0.99c2.99,0.66,5.84,1.71,8.57,3.16c2.72,1.45,5.01,3.36,6.85,5.73c0.97,1.32,1.54,2.9,1.71,4.75
				c0.17,1.84-0.66,3.52-2.5,5.01c-1.32,1.05-2.86,1.52-4.61,1.38c-1.76-0.13-3.21-0.73-4.35-1.78c-1.5-1.93-3.49-3.47-6-4.61
				c-2.5-1.14-5.38-1.71-8.63-1.71c-1.32,0-2.75,0.15-4.28,0.46c-1.54,0.31-2.88,0.97-4.02,1.98c-1.14,1.01-1.71,2.62-1.71,4.81
				c0,2.02,0.66,3.62,1.98,4.81c1.32,1.19,3.1,2.15,5.34,2.9c2.24,0.75,4.63,1.47,7.18,2.17c2.64,0.71,5.32,1.54,8.04,2.5
				c2.72,0.97,5.23,2.24,7.51,3.82c2.28,1.58,4.13,3.62,5.54,6.13c1.4,2.5,2.11,5.69,2.11,9.55c0,4.48-1.32,8.3-3.95,11.47
				c-2.64,3.16-5.93,5.56-9.89,7.18c-3.95,1.62-8,2.44-12.13,2.44c-5.19,0-10.37-0.9-15.55-2.7
				C722.84,196.32,718.53,193.13,715.11,188.56z"/>
			<path class="st1" d="M783.51,130.3h31.24c2.11,0,3.87,0.7,5.27,2.11c1.41,1.41,2.11,3.16,2.11,5.27c0,2.02-0.7,3.71-2.11,5.07
				c-1.41,1.36-3.16,2.04-5.27,2.04h-31.24c-2.11,0-3.87-0.7-5.27-2.11c-1.41-1.4-2.11-3.16-2.11-5.27c0-2.02,0.7-3.71,2.11-5.07
				C779.64,130.98,781.4,130.3,783.51,130.3z M797.62,113.83c2.28,0,4.15,0.77,5.6,2.31c1.45,1.54,2.17,3.45,2.17,5.73v58.65
				c0,1.23,0.24,2.24,0.72,3.03c0.48,0.79,1.14,1.36,1.98,1.71c0.83,0.35,1.73,0.53,2.7,0.53c1.05,0,2.02-0.2,2.9-0.59
				c0.88-0.4,1.89-0.59,3.03-0.59c1.23,0,2.35,0.57,3.36,1.71c1.01,1.14,1.52,2.72,1.52,4.75c0,2.46-1.34,4.48-4.02,6.06
				c-2.68,1.58-5.56,2.37-8.63,2.37c-1.85,0-3.89-0.15-6.13-0.46c-2.24-0.31-4.35-1.05-6.33-2.24c-1.98-1.19-3.62-3.01-4.94-5.47
				c-1.32-2.46-1.98-5.84-1.98-10.15v-59.31c0-2.28,0.77-4.2,2.31-5.73C793.42,114.6,795.33,113.83,797.62,113.83z"/>
			<path class="st1" d="M835.18,188.56c-0.88-1.23-1.28-2.81-1.19-4.75c0.09-1.93,1.23-3.6,3.43-5.01c1.4-0.88,2.9-1.25,4.48-1.12
				c1.58,0.13,3.12,0.95,4.61,2.44c2.55,2.55,5.23,4.53,8.04,5.93c2.81,1.41,6.33,2.11,10.54,2.11c1.32-0.09,2.77-0.28,4.35-0.59
				c1.58-0.31,2.97-1.01,4.15-2.11c1.19-1.1,1.78-2.79,1.78-5.07c0-1.93-0.66-3.47-1.98-4.61c-1.32-1.14-3.05-2.11-5.21-2.9
				c-2.15-0.79-4.55-1.54-7.18-2.24c-2.72-0.79-5.51-1.67-8.37-2.64c-2.86-0.97-5.47-2.22-7.84-3.76c-2.37-1.54-4.31-3.58-5.8-6.13
				c-1.5-2.55-2.24-5.75-2.24-9.62c0-4.39,1.23-8.12,3.69-11.2c2.46-3.07,5.65-5.45,9.56-7.12c3.91-1.67,8.02-2.5,12.32-2.5
				c2.72,0,5.58,0.33,8.57,0.99c2.99,0.66,5.84,1.71,8.57,3.16c2.72,1.45,5.01,3.36,6.85,5.73c0.97,1.32,1.54,2.9,1.71,4.75
				c0.17,1.84-0.66,3.52-2.5,5.01c-1.32,1.05-2.86,1.52-4.61,1.38c-1.76-0.13-3.21-0.73-4.35-1.78c-1.5-1.93-3.49-3.47-6-4.61
				c-2.5-1.14-5.38-1.71-8.63-1.71c-1.32,0-2.75,0.15-4.28,0.46c-1.54,0.31-2.88,0.97-4.02,1.98c-1.14,1.01-1.71,2.62-1.71,4.81
				c0,2.02,0.66,3.62,1.98,4.81c1.32,1.19,3.1,2.15,5.34,2.9c2.24,0.75,4.63,1.47,7.18,2.17c2.64,0.71,5.32,1.54,8.04,2.5
				c2.72,0.97,5.23,2.24,7.51,3.82c2.28,1.58,4.13,3.62,5.54,6.13c1.4,2.5,2.11,5.69,2.11,9.55c0,4.48-1.32,8.3-3.95,11.47
				c-2.64,3.16-5.93,5.56-9.89,7.18s-8,2.44-12.13,2.44c-5.19,0-10.37-0.9-15.55-2.7C842.91,196.32,838.6,193.13,835.18,188.56z"/>
		</g>
	</g>
	<g>
		<path class="st1" d="M197.87,189.01c0,0,9.95-12.6,35.42-2.7l-13.32,13.95L197.87,189.01z"/>
		<g>
			<path class="st1" d="M227.7,189.09c-0.57-0.5-1.14-1.01-1.71-1.51c-8.21-7.26-20.68-6.57-28.11,1.48
				c-11.49,12.47-31.28,27.96-59.58,29.58c-35.46,2.03-69.3-18.57-83.58-50.26c-1.3-2.88-20.28-46.86,6.6-80.33
				c21.1-26.29,54.41-26.09,58.45-26c28.94,0.64,56.38,19.13,72.73,48.1c1.13,2,2.53,3.75,4.13,5.24l0,0c0,0,9.95,12.6,35.42,2.7
				l-4.29-4.49c5.55-6.1,7.2-15.08,3.69-22.95c-26.24-58.68-93.66-88.78-152.47-68.2C10.51,46.39-15.98,128.45,9.55,189.14
				c23.03,54.75,84.09,82.89,138.69,74.74c39.93-5.96,66.9-29.91,81.38-46.66C236.8,208.91,235.92,196.37,227.7,189.09z"/>
			<path class="st0" d="M381.6,55.96c-18.47-40.95-62.02-51.29-65.44-52.04c-29.35-6.46-60.23,1.61-84.05,21.07
				c-9.67,7.9-9.95,22.59-0.51,30.77c0.1,0.09,0.21,0.18,0.31,0.27c7.38,6.4,25.04,6.87,32.62,0.71
				c14.85-12.06,27.65-16.65,45.19-11.01c17.53,5.63,31.4,20.57,35.5,38.73c4.94,21.84-3.91,49.76-28.02,59.74
				c-14.95,6.18-31.97,4.25-45.48-4.42l3.65-5.46c-16.93-3.39-26.2,1.01-30.74,4.7c-0.2,0.15-0.4,0.29-0.6,0.45l-3.06,2.52
				c-11.1,9.16-10.11,26.54,2.05,34.25c28.42,18.03,63.91,21.04,93.5,6.9C384.49,160.23,401.28,99.58,381.6,55.96z"/>
			<path class="st0" d="M19.56,189.14c-25.53-60.69,0.96-142.74,69.43-166.7c58.81-20.58,126.23,9.52,152.47,68.2
				c4.38,9.8,0.75,21.33-8.44,26.86l-0.96,0.58c-10.32,6.21-23.62,2.55-29.54-7.94c-16.35-28.96-43.79-47.45-72.73-48.1
				c-4.04-0.09-37.35-0.28-58.45,26c-26.87,33.48-7.89,77.45-6.6,80.33c14.27,31.69,48.12,52.29,83.58,50.26
				c28.29-1.62,48.08-17.11,59.58-29.58c7.42-8.06,19.9-8.74,28.11-1.48c0.57,0.5,1.14,1.01,1.71,1.51
				c8.22,7.27,9.1,19.82,1.92,28.13c-14.48,16.75-41.45,40.7-81.38,46.66C103.65,272.03,42.59,243.88,19.56,189.14z"/>
			<path class="st1" d="M241.76,54.29c7.38,6.4,18.28,6.52,25.86,0.36c14.85-12.06,34.4-16.3,51.95-10.66
				c17.53,5.63,31.4,20.57,35.5,38.73c4.94,21.84-3.91,49.76-28.02,59.74c-15.7,6.5-33.7,4.05-47.51-5.77
				c-7.77-5.52-18.3-5.02-25.65,1.04l-3.06,2.52c-11.1,9.16-10.11,26.54,2.05,34.25c28.42,18.03,63.91,21.04,93.5,6.9
				c47.96-22.91,64.75-83.55,45.08-127.18c-18.47-40.95-62.02-51.29-65.44-52.04c-29.35-6.46-60.23,1.61-84.05,21.07
				c-9.67,7.9-9.95,22.59-0.51,30.77C241.56,54.11,241.66,54.2,241.76,54.29z"/>
			<circle class="st1" cx="130.22" cy="143.13" r="26.91"/>
			<circle class="st0" cx="136.45" cy="141.31" r="26.91"/>
			<circle class="st0" cx="300.23" cy="96.93" r="21.32"/>
			<circle class="st1" cx="304.84" cy="94.65" r="21.32"/>
		</g>
	</g>
	<g>
		<g>
			<path class="st1" d="M448.44,261.5c0,0.74-0.19,1.43-0.56,2.04c-0.37,0.62-0.87,1.12-1.49,1.49c-0.62,0.37-1.3,0.56-2.05,0.56
				h-5.58c-0.74,0-1.43-0.19-2.06-0.56c-0.63-0.37-1.13-0.87-1.5-1.49c-0.37-0.62-0.56-1.3-0.56-2.04v-15.44
				c0-0.41,0.14-0.75,0.42-1.02c0.28-0.27,0.61-0.4,1.01-0.4h0.87c0.39,0,0.73,0.13,1.01,0.4c0.28,0.27,0.42,0.61,0.42,1.02v15.44
				c0,0.1,0.04,0.2,0.12,0.29c0.08,0.09,0.18,0.14,0.28,0.14h5.58c0.1,0,0.2-0.05,0.28-0.14c0.08-0.09,0.12-0.19,0.12-0.29v-15.44
				c0-0.41,0.14-0.75,0.42-1.02c0.28-0.27,0.61-0.4,1.01-0.4h0.84c0.41,0,0.75,0.13,1.02,0.4c0.27,0.27,0.4,0.61,0.4,1.02V261.5z"/>
			<path class="st1" d="M468.25,264.17c0,0.39-0.14,0.73-0.42,1.01c-0.28,0.28-0.62,0.42-1.01,0.42h-0.9
				c-0.56,0-0.97-0.24-1.24-0.71l-6.6-11.44c-0.04-0.08-0.1-0.11-0.19-0.08c-0.08,0.03-0.12,0.08-0.12,0.14v10.66
				c0,0.39-0.14,0.73-0.42,1.01c-0.28,0.28-0.6,0.42-0.98,0.42h-0.87c-0.39,0-0.73-0.14-1.01-0.42c-0.28-0.28-0.42-0.61-0.42-1.01
				v-18.11c0-0.41,0.14-0.75,0.42-1.02c0.28-0.27,0.61-0.4,1.01-0.4h0.9c0.56,0,0.97,0.24,1.24,0.71l6.6,11.44
				c0.06,0.08,0.13,0.11,0.2,0.09c0.07-0.02,0.11-0.07,0.11-0.16v-10.66c0-0.41,0.14-0.75,0.42-1.02c0.28-0.27,0.61-0.4,1.01-0.4
				h0.84c0.39,0,0.73,0.13,1.01,0.4c0.28,0.27,0.42,0.61,0.42,1.02V264.17z"/>
			<path class="st1" d="M477.58,264.17c0,0.39-0.14,0.73-0.42,1.01c-0.28,0.28-0.62,0.42-1.01,0.42h-0.84
				c-0.39,0-0.73-0.14-1.01-0.42c-0.28-0.28-0.42-0.61-0.42-1.01v-18.11c0-0.41,0.14-0.75,0.42-1.02c0.28-0.27,0.61-0.4,1.01-0.4
				h0.84c0.39,0,0.73,0.13,1.01,0.4c0.28,0.27,0.42,0.61,0.42,1.02V264.17z"/>
			<path class="st1" d="M497.01,246.9c0,0.39-0.13,0.73-0.4,1.01c-0.27,0.28-0.61,0.42-1.02,0.42h-3.25c-0.27,0-0.4,0.13-0.4,0.4
				v15.44c0,0.39-0.14,0.73-0.42,1.01c-0.28,0.28-0.62,0.42-1.01,0.42h-0.81c-0.39,0-0.73-0.14-1.01-0.42
				c-0.28-0.28-0.42-0.61-0.42-1.01v-15.44c0-0.27-0.13-0.4-0.4-0.4h-3.29c-0.39,0-0.73-0.14-1.01-0.42
				c-0.28-0.28-0.42-0.62-0.42-1.01v-0.84c0-0.41,0.14-0.75,0.42-1.02c0.28-0.27,0.62-0.4,1.01-0.4h11c0.41,0,0.75,0.13,1.02,0.4
				c0.27,0.27,0.4,0.61,0.4,1.02V246.9z"/>
			<path class="st1" d="M506.31,264.17c0,0.39-0.14,0.73-0.42,1.01c-0.28,0.28-0.62,0.42-1.01,0.42h-0.84
				c-0.39,0-0.73-0.14-1.01-0.42c-0.28-0.28-0.42-0.61-0.42-1.01v-18.11c0-0.41,0.14-0.75,0.42-1.02c0.28-0.27,0.61-0.4,1.01-0.4
				h0.84c0.39,0,0.73,0.13,1.01,0.4c0.28,0.27,0.42,0.61,0.42,1.02V264.17z"/>
			<path class="st1" d="M526.12,264.17c0,0.39-0.14,0.73-0.42,1.01c-0.28,0.28-0.62,0.42-1.01,0.42h-0.9
				c-0.56,0-0.97-0.24-1.24-0.71l-6.6-11.44c-0.04-0.08-0.1-0.11-0.19-0.08s-0.12,0.08-0.12,0.14v10.66c0,0.39-0.14,0.73-0.42,1.01
				c-0.28,0.28-0.6,0.42-0.98,0.42h-0.87c-0.39,0-0.73-0.14-1.01-0.42c-0.28-0.28-0.42-0.61-0.42-1.01v-18.11
				c0-0.41,0.14-0.75,0.42-1.02c0.28-0.27,0.62-0.4,1.01-0.4h0.9c0.56,0,0.97,0.24,1.24,0.71l6.6,11.44
				c0.06,0.08,0.13,0.11,0.2,0.09c0.07-0.02,0.11-0.07,0.11-0.16v-10.66c0-0.41,0.14-0.75,0.42-1.02c0.28-0.27,0.61-0.4,1.01-0.4
				h0.84c0.39,0,0.73,0.13,1.01,0.4c0.28,0.27,0.42,0.61,0.42,1.02V264.17z"/>
			<path class="st1" d="M545.93,261.5c0,0.74-0.19,1.43-0.56,2.04c-0.37,0.62-0.87,1.12-1.49,1.49c-0.62,0.37-1.3,0.56-2.05,0.56
				h-5.95c-0.74,0-1.43-0.19-2.06-0.56c-0.63-0.37-1.13-0.87-1.5-1.49c-0.37-0.62-0.56-1.3-0.56-2.04v-12.74
				c0-0.76,0.19-1.46,0.56-2.08c0.37-0.62,0.87-1.12,1.5-1.49c0.63-0.37,1.32-0.56,2.06-0.56h5.95c0.74,0,1.43,0.19,2.05,0.56
				s1.12,0.87,1.49,1.49c0.37,0.62,0.56,1.31,0.56,2.08v0.84c0,0.39-0.14,0.72-0.42,0.99c-0.28,0.27-0.62,0.4-1.01,0.4h-0.84
				c-0.39,0-0.73-0.13-1.01-0.4c-0.28-0.27-0.42-0.6-0.42-0.99v-0.84c0-0.29-0.13-0.43-0.4-0.43h-5.95c-0.1,0-0.2,0.04-0.29,0.12
				c-0.09,0.08-0.14,0.19-0.14,0.31v12.74c0,0.1,0.05,0.2,0.14,0.29c0.09,0.09,0.19,0.14,0.29,0.14h5.95c0.1,0,0.2-0.05,0.28-0.14
				c0.08-0.09,0.12-0.19,0.12-0.29v-4.15c0-0.25-0.12-0.37-0.37-0.37h-2.2c-0.39,0-0.73-0.14-1.01-0.42
				c-0.28-0.28-0.42-0.62-0.42-1.01v-0.87c0-0.39,0.14-0.72,0.42-0.99c0.28-0.27,0.61-0.4,1.01-0.4h4.84c0.39,0,0.73,0.13,1.01,0.4
				c0.28,0.27,0.42,0.6,0.42,0.99V261.5z"/>
			<path class="st1" d="M575.57,261.5c0,0.74-0.19,1.43-0.56,2.04c-0.37,0.62-0.87,1.12-1.49,1.49c-0.62,0.37-1.3,0.56-2.05,0.56
				h-5.58c-0.74,0-1.43-0.19-2.06-0.56c-0.63-0.37-1.13-0.87-1.5-1.49c-0.37-0.62-0.56-1.3-0.56-2.04v-12.74
				c0-0.76,0.19-1.46,0.56-2.08c0.37-0.62,0.87-1.12,1.5-1.49c0.63-0.37,1.32-0.56,2.06-0.56h5.58c0.74,0,1.43,0.19,2.05,0.56
				c0.62,0.37,1.12,0.87,1.49,1.49c0.37,0.62,0.56,1.31,0.56,2.08v0.84c0,0.39-0.13,0.72-0.4,0.99c-0.27,0.27-0.61,0.4-1.02,0.4
				h-0.84c-0.39,0-0.73-0.13-1.01-0.4c-0.28-0.27-0.42-0.6-0.42-0.99v-0.84c0-0.29-0.13-0.43-0.4-0.43h-5.58
				c-0.27,0-0.4,0.14-0.4,0.43v12.74c0,0.1,0.04,0.2,0.12,0.29c0.08,0.09,0.17,0.14,0.28,0.14h5.58c0.1,0,0.2-0.05,0.28-0.14
				c0.08-0.09,0.12-0.19,0.12-0.29v-0.93c0-0.39,0.14-0.73,0.42-1.01c0.28-0.28,0.61-0.42,1.01-0.42h0.84
				c0.41,0,0.75,0.14,1.02,0.42c0.27,0.28,0.4,0.62,0.4,1.01V261.5z"/>
			<path class="st1" d="M596.99,245.35c0.25,0.48,0.24,0.96-0.03,1.46l-5.8,9.42c-0.08,0.1-0.12,0.28-0.12,0.53v7.41
				c0,0.39-0.14,0.73-0.42,1.01c-0.28,0.28-0.62,0.42-1.01,0.42h-0.87c-0.39,0-0.73-0.14-1.01-0.42c-0.28-0.28-0.42-0.61-0.42-1.01
				v-7.44c0-0.23-0.05-0.39-0.15-0.5l-5.77-9.42c-0.27-0.52-0.28-0.99-0.03-1.43c0.27-0.5,0.68-0.74,1.24-0.74h0.99
				c0.56,0,0.97,0.23,1.24,0.68c0.23,0.35,0.57,0.91,1.02,1.68c0.46,0.76,0.96,1.6,1.52,2.49c0.56,0.9,1.08,1.75,1.58,2.56
				c0.04,0.08,0.11,0.12,0.2,0.12s0.17-0.04,0.23-0.12c0.56-0.91,1.11-1.8,1.64-2.68c0.54-0.88,1.03-1.67,1.47-2.39
				s0.78-1.27,1.01-1.66c0.27-0.45,0.67-0.68,1.21-0.68h0.99C596.29,244.63,596.72,244.87,596.99,245.35z"/>
			<path class="st1" d="M616.55,261.5c0,0.74-0.19,1.43-0.56,2.04c-0.37,0.62-0.87,1.12-1.49,1.49c-0.62,0.37-1.3,0.56-2.05,0.56
				h-5.58c-0.74,0-1.43-0.19-2.06-0.56c-0.63-0.37-1.13-0.87-1.5-1.49c-0.37-0.62-0.56-1.3-0.56-2.04v-12.74
				c0-0.76,0.19-1.46,0.56-2.08c0.37-0.62,0.87-1.12,1.5-1.49c0.63-0.37,1.32-0.56,2.06-0.56h5.58c0.74,0,1.43,0.19,2.05,0.56
				c0.62,0.37,1.12,0.87,1.49,1.49c0.37,0.62,0.56,1.31,0.56,2.08v0.84c0,0.39-0.13,0.72-0.4,0.99c-0.27,0.27-0.61,0.4-1.02,0.4
				h-0.84c-0.39,0-0.73-0.13-1.01-0.4c-0.28-0.27-0.42-0.6-0.42-0.99v-0.84c0-0.29-0.13-0.43-0.4-0.43h-5.58
				c-0.27,0-0.4,0.14-0.4,0.43v12.74c0,0.1,0.04,0.2,0.12,0.29c0.08,0.09,0.17,0.14,0.28,0.14h5.58c0.1,0,0.2-0.05,0.28-0.14
				c0.08-0.09,0.12-0.19,0.12-0.29v-0.93c0-0.39,0.14-0.73,0.42-1.01c0.28-0.28,0.61-0.42,1.01-0.42h0.84
				c0.41,0,0.75,0.14,1.02,0.42c0.27,0.28,0.4,0.62,0.4,1.01V261.5z"/>
			<path class="st1" d="M635.61,264.17c0,0.39-0.14,0.73-0.42,1.01c-0.28,0.28-0.6,0.42-0.98,0.42h-10.66
				c-0.37,0-0.7-0.14-0.98-0.42c-0.28-0.28-0.42-0.61-0.42-1.01v-18.11c0-0.41,0.14-0.75,0.42-1.02c0.28-0.27,0.6-0.4,0.98-0.4h0.87
				c0.39,0,0.73,0.13,1.01,0.4c0.28,0.27,0.42,0.61,0.42,1.02v15.47c0,0.27,0.12,0.4,0.37,0.4h8c0.37,0,0.7,0.13,0.98,0.4
				c0.28,0.27,0.42,0.61,0.42,1.02V264.17z"/>
			<path class="st1" d="M644.91,264.17c0,0.39-0.14,0.73-0.42,1.01c-0.28,0.28-0.62,0.42-1.01,0.42h-0.84
				c-0.39,0-0.73-0.14-1.01-0.42c-0.28-0.28-0.42-0.61-0.42-1.01v-18.11c0-0.41,0.14-0.75,0.42-1.02c0.28-0.27,0.61-0.4,1.01-0.4
				h0.84c0.39,0,0.73,0.13,1.01,0.4c0.28,0.27,0.42,0.61,0.42,1.02V264.17z"/>
			<path class="st1" d="M664.72,261.5c0,0.74-0.19,1.43-0.56,2.04c-0.37,0.62-0.87,1.12-1.49,1.49c-0.62,0.37-1.3,0.56-2.05,0.56
				h-5.95c-0.74,0-1.43-0.19-2.06-0.56c-0.63-0.37-1.13-0.87-1.5-1.49c-0.37-0.62-0.56-1.3-0.56-2.04v-0.93
				c0-0.39,0.14-0.73,0.42-1.01c0.28-0.28,0.62-0.42,1.01-0.42h0.87c0.37,0,0.7,0.14,0.98,0.42c0.28,0.28,0.42,0.62,0.42,1.01v0.93
				c0,0.1,0.05,0.2,0.14,0.29c0.09,0.09,0.19,0.14,0.29,0.14h5.95c0.1,0,0.2-0.05,0.28-0.14c0.08-0.09,0.12-0.19,0.12-0.29v-2.82
				c0-0.23-0.1-0.37-0.31-0.43l-7.44-2.79c-0.83-0.29-1.49-0.8-1.98-1.52s-0.74-1.52-0.74-2.39v-2.79c0-0.76,0.19-1.46,0.56-2.08
				c0.37-0.62,0.87-1.12,1.5-1.49c0.63-0.37,1.32-0.56,2.06-0.56h5.95c0.74,0,1.43,0.19,2.05,0.56s1.12,0.87,1.49,1.49
				c0.37,0.62,0.56,1.31,0.56,2.08v0.84c0,0.39-0.14,0.72-0.42,0.99c-0.28,0.27-0.62,0.4-1.01,0.4h-0.84c-0.39,0-0.73-0.13-1.01-0.4
				c-0.28-0.27-0.42-0.6-0.42-0.99v-0.84c0-0.29-0.13-0.43-0.4-0.43h-5.95c-0.1,0-0.2,0.04-0.29,0.12
				c-0.09,0.08-0.14,0.19-0.14,0.31v2.79c0,0.25,0.1,0.4,0.31,0.46l7.47,2.79c0.81,0.29,1.46,0.8,1.95,1.52
				c0.5,0.72,0.74,1.51,0.74,2.36V261.5z"/>
			<path class="st1" d="M684.16,246.9c0,0.39-0.13,0.73-0.4,1.01s-0.61,0.42-1.02,0.42h-3.26c-0.27,0-0.4,0.13-0.4,0.4v15.44
				c0,0.39-0.14,0.73-0.42,1.01c-0.28,0.28-0.62,0.42-1.01,0.42h-0.81c-0.39,0-0.73-0.14-1.01-0.42c-0.28-0.28-0.42-0.61-0.42-1.01
				v-15.44c0-0.27-0.13-0.4-0.4-0.4h-3.29c-0.39,0-0.73-0.14-1.01-0.42s-0.42-0.62-0.42-1.01v-0.84c0-0.41,0.14-0.75,0.42-1.02
				c0.28-0.27,0.61-0.4,1.01-0.4h11.01c0.41,0,0.75,0.13,1.02,0.4c0.27,0.27,0.4,0.61,0.4,1.02V246.9z"/>
			<path class="st1" d="M703.93,261.5c0,0.74-0.19,1.43-0.56,2.04c-0.37,0.62-0.87,1.12-1.49,1.49c-0.62,0.37-1.3,0.56-2.05,0.56
				h-5.95c-0.74,0-1.43-0.19-2.06-0.56c-0.63-0.37-1.13-0.87-1.5-1.49c-0.37-0.62-0.56-1.3-0.56-2.04v-0.93
				c0-0.39,0.14-0.73,0.42-1.01c0.28-0.28,0.62-0.42,1.01-0.42h0.87c0.37,0,0.7,0.14,0.98,0.42c0.28,0.28,0.42,0.62,0.42,1.01v0.93
				c0,0.1,0.05,0.2,0.14,0.29c0.09,0.09,0.19,0.14,0.29,0.14h5.95c0.1,0,0.2-0.05,0.28-0.14c0.08-0.09,0.12-0.19,0.12-0.29v-2.82
				c0-0.23-0.1-0.37-0.31-0.43l-7.44-2.79c-0.83-0.29-1.49-0.8-1.98-1.52s-0.74-1.52-0.74-2.39v-2.79c0-0.76,0.19-1.46,0.56-2.08
				c0.37-0.62,0.87-1.12,1.5-1.49c0.63-0.37,1.32-0.56,2.06-0.56h5.95c0.74,0,1.43,0.19,2.05,0.56s1.12,0.87,1.49,1.49
				c0.37,0.62,0.56,1.31,0.56,2.08v0.84c0,0.39-0.14,0.72-0.42,0.99c-0.28,0.27-0.62,0.4-1.01,0.4h-0.84c-0.39,0-0.73-0.13-1.01-0.4
				c-0.28-0.27-0.42-0.6-0.42-0.99v-0.84c0-0.29-0.13-0.43-0.4-0.43h-5.95c-0.1,0-0.2,0.04-0.29,0.12
				c-0.09,0.08-0.14,0.19-0.14,0.31v2.79c0,0.25,0.1,0.4,0.31,0.46l7.47,2.79c0.81,0.29,1.46,0.8,1.95,1.52
				c0.5,0.72,0.74,1.51,0.74,2.36V261.5z"/>
			<path class="st0" d="M733.97,261.5c0,0.74-0.19,1.43-0.56,2.04c-0.37,0.62-0.87,1.12-1.49,1.49c-0.62,0.37-1.3,0.56-2.05,0.56
				h-5.95c-0.74,0-1.43-0.19-2.06-0.56c-0.63-0.37-1.13-0.87-1.5-1.49c-0.37-0.62-0.56-1.3-0.56-2.04v-0.93
				c0-0.39,0.14-0.73,0.42-1.01c0.28-0.28,0.61-0.42,1.01-0.42h0.87c0.37,0,0.7,0.14,0.98,0.42c0.28,0.28,0.42,0.62,0.42,1.01v0.93
				c0,0.1,0.05,0.2,0.14,0.29c0.09,0.09,0.19,0.14,0.29,0.14h5.95c0.1,0,0.2-0.05,0.28-0.14c0.08-0.09,0.12-0.19,0.12-0.29v-2.82
				c0-0.23-0.1-0.37-0.31-0.43l-7.44-2.79c-0.83-0.29-1.49-0.8-1.98-1.52s-0.74-1.52-0.74-2.39v-2.79c0-0.76,0.19-1.46,0.56-2.08
				c0.37-0.62,0.87-1.12,1.5-1.49s1.32-0.56,2.06-0.56h5.95c0.74,0,1.43,0.19,2.05,0.56s1.12,0.87,1.49,1.49
				c0.37,0.62,0.56,1.31,0.56,2.08v0.84c0,0.39-0.14,0.72-0.42,0.99c-0.28,0.27-0.62,0.4-1.01,0.4h-0.84c-0.39,0-0.73-0.13-1.01-0.4
				c-0.28-0.27-0.42-0.6-0.42-0.99v-0.84c0-0.29-0.13-0.43-0.4-0.43h-5.95c-0.1,0-0.2,0.04-0.29,0.12
				c-0.09,0.08-0.14,0.19-0.14,0.31v2.79c0,0.25,0.1,0.4,0.31,0.46l7.47,2.79c0.81,0.29,1.46,0.8,1.95,1.52
				c0.5,0.72,0.74,1.51,0.74,2.36V261.5z"/>
			<path class="st0" d="M743.3,264.17c0,0.39-0.14,0.73-0.42,1.01c-0.28,0.28-0.62,0.42-1.01,0.42h-0.84
				c-0.39,0-0.73-0.14-1.01-0.42c-0.28-0.28-0.42-0.61-0.42-1.01v-18.11c0-0.41,0.14-0.75,0.42-1.02c0.28-0.27,0.61-0.4,1.01-0.4
				h0.84c0.39,0,0.73,0.13,1.01,0.4c0.28,0.27,0.42,0.61,0.42,1.02V264.17z"/>
			<path class="st0" d="M763.11,264.17c0,0.39-0.14,0.73-0.42,1.01c-0.28,0.28-0.62,0.42-1.01,0.42h-0.9
				c-0.56,0-0.97-0.24-1.24-0.71l-6.6-11.44c-0.04-0.08-0.1-0.11-0.19-0.08s-0.12,0.08-0.12,0.14v10.66c0,0.39-0.14,0.73-0.42,1.01
				c-0.28,0.28-0.6,0.42-0.98,0.42h-0.87c-0.39,0-0.73-0.14-1.01-0.42c-0.28-0.28-0.42-0.61-0.42-1.01v-18.11
				c0-0.41,0.14-0.75,0.42-1.02c0.28-0.27,0.62-0.4,1.01-0.4h0.9c0.56,0,0.97,0.24,1.24,0.71l6.6,11.44
				c0.06,0.08,0.13,0.11,0.2,0.09c0.07-0.02,0.11-0.07,0.11-0.16v-10.66c0-0.41,0.14-0.75,0.42-1.02c0.28-0.27,0.61-0.4,1.01-0.4
				h0.84c0.39,0,0.73,0.13,1.01,0.4c0.28,0.27,0.42,0.61,0.42,1.02V264.17z"/>
			<path class="st0" d="M782.52,261.5c0,0.74-0.19,1.43-0.56,2.04c-0.37,0.62-0.87,1.12-1.49,1.49c-0.62,0.37-1.3,0.56-2.05,0.56
				h-5.58c-0.74,0-1.43-0.19-2.06-0.56c-0.63-0.37-1.13-0.87-1.5-1.49c-0.37-0.62-0.56-1.3-0.56-2.04v-12.74
				c0-0.76,0.19-1.46,0.56-2.08c0.37-0.62,0.87-1.12,1.5-1.49c0.63-0.37,1.32-0.56,2.06-0.56h5.58c0.74,0,1.43,0.19,2.05,0.56
				s1.12,0.87,1.49,1.49c0.37,0.62,0.56,1.31,0.56,2.08v0.84c0,0.39-0.13,0.72-0.4,0.99c-0.27,0.27-0.61,0.4-1.02,0.4h-0.84
				c-0.39,0-0.73-0.13-1.01-0.4c-0.28-0.27-0.42-0.6-0.42-0.99v-0.84c0-0.29-0.13-0.43-0.4-0.43h-5.58c-0.27,0-0.4,0.14-0.4,0.43
				v12.74c0,0.1,0.04,0.2,0.12,0.29c0.08,0.09,0.18,0.14,0.28,0.14h5.58c0.1,0,0.2-0.05,0.28-0.14c0.08-0.09,0.12-0.19,0.12-0.29
				v-0.93c0-0.39,0.14-0.73,0.42-1.01c0.28-0.28,0.62-0.42,1.01-0.42h0.84c0.41,0,0.75,0.14,1.02,0.42c0.27,0.28,0.4,0.62,0.4,1.01
				V261.5z"/>
			<path class="st0" d="M801.58,264.17c0,0.39-0.14,0.73-0.42,1.01c-0.28,0.28-0.6,0.42-0.98,0.42h-10.66
				c-0.37,0-0.7-0.14-0.98-0.42c-0.28-0.28-0.42-0.61-0.42-1.01v-18.11c0-0.41,0.14-0.75,0.42-1.02c0.28-0.27,0.6-0.4,0.98-0.4
				h10.66c0.37,0,0.7,0.13,0.98,0.4c0.28,0.27,0.42,0.61,0.42,1.02v0.84c0,0.39-0.14,0.73-0.42,1.01s-0.6,0.42-0.98,0.42h-8
				c-0.25,0-0.37,0.13-0.37,0.4v4.12c0,0.29,0.12,0.44,0.37,0.44h6.88c0.41,0,0.75,0.13,1.02,0.4c0.27,0.27,0.4,0.6,0.4,0.99v0.87
				c0,0.39-0.13,0.73-0.4,1.01c-0.27,0.28-0.61,0.42-1.02,0.42h-6.88c-0.25,0-0.37,0.12-0.37,0.37v4.19c0,0.27,0.12,0.4,0.37,0.4h8
				c0.37,0,0.7,0.13,0.98,0.4c0.28,0.27,0.42,0.61,0.42,1.02V264.17z"/>
			<path class="st0" d="M831.59,264.17c0,0.39-0.14,0.73-0.42,1.01c-0.28,0.28-0.62,0.42-1.01,0.42h-8.62
				c-0.74,0-1.43-0.19-2.06-0.56c-0.63-0.37-1.13-0.87-1.5-1.49c-0.37-0.62-0.56-1.3-0.56-2.04v-2.82c0-0.85,0.25-1.63,0.74-2.36
				c0.5-0.72,1.16-1.23,1.98-1.52l7.44-2.79c0.21-0.06,0.31-0.22,0.31-0.46v-2.79c0-0.29-0.13-0.43-0.4-0.43h-5.95
				c-0.1,0-0.2,0.04-0.29,0.12c-0.09,0.08-0.14,0.19-0.14,0.31v0.84c0,0.39-0.14,0.72-0.42,0.99c-0.28,0.27-0.62,0.4-1.01,0.4h-0.84
				c-0.39,0-0.73-0.13-1.01-0.4c-0.28-0.27-0.42-0.6-0.42-0.99v-0.84c0-0.76,0.19-1.46,0.56-2.08c0.37-0.62,0.87-1.12,1.5-1.49
				s1.32-0.56,2.06-0.56h5.95c0.74,0,1.43,0.19,2.05,0.56s1.12,0.87,1.49,1.49c0.37,0.62,0.56,1.31,0.56,2.08v2.79
				c0,0.87-0.25,1.66-0.74,2.39c-0.5,0.72-1.15,1.23-1.95,1.52l-7.47,2.79c-0.21,0.06-0.31,0.21-0.31,0.43v2.82
				c0,0.1,0.05,0.2,0.14,0.29c0.09,0.09,0.19,0.14,0.29,0.14h8.62c0.39,0,0.73,0.13,1.01,0.4c0.28,0.27,0.42,0.61,0.42,1.02V264.17z
				"/>
			<path class="st0" d="M851.4,261.5c0,0.74-0.19,1.43-0.56,2.04c-0.37,0.62-0.87,1.12-1.49,1.49c-0.62,0.37-1.3,0.56-2.05,0.56
				h-5.95c-0.66,0-1.29-0.16-1.89-0.46l-0.03-0.03c-0.68-0.35-1.22-0.85-1.61-1.5s-0.59-1.35-0.59-2.09v-12.74
				c0-0.76,0.19-1.46,0.56-2.08c0.37-0.62,0.87-1.12,1.5-1.49s1.32-0.56,2.06-0.56h5.95c0.19,0,0.44,0.03,0.76,0.08
				c0.32,0.05,0.66,0.17,1.01,0.36h0.03c0.7,0.35,1.26,0.85,1.67,1.5c0.41,0.65,0.62,1.38,0.62,2.19V261.5z M845.63,248.7
				c0.04-0.1,0.04-0.19,0-0.26c-0.04-0.07-0.11-0.11-0.22-0.11h-4.06c-0.1,0-0.2,0.04-0.29,0.12c-0.09,0.08-0.14,0.19-0.14,0.31
				v8.06c0,0.08,0.04,0.13,0.12,0.15c0.08,0.02,0.14-0.01,0.19-0.09L845.63,248.7z M847.71,261.5v-8.28c0-0.1-0.04-0.17-0.11-0.19
				c-0.07-0.02-0.14,0.01-0.2,0.09l-4.5,8.43c-0.02,0.08-0.01,0.17,0.03,0.25c0.04,0.08,0.1,0.12,0.19,0.12h4.18
				c0.1,0,0.2-0.05,0.28-0.14C847.67,261.7,847.71,261.6,847.71,261.5z"/>
			<path class="st0" d="M867.52,264.17c0,0.39-0.13,0.73-0.39,1.01c-0.26,0.28-0.58,0.42-0.98,0.42h-0.87
				c-0.39,0-0.73-0.14-1.01-0.42c-0.28-0.28-0.42-0.61-0.42-1.01v-14.11c0-0.08-0.04-0.14-0.11-0.17c-0.07-0.03-0.13-0.03-0.17,0.02
				l-0.46,0.46c-0.25,0.29-0.58,0.43-0.99,0.43c-0.21,0-0.39-0.04-0.56-0.12c-0.27-0.1-0.48-0.28-0.62-0.53
				c-0.14-0.25-0.22-0.51-0.22-0.77v-1.21c0-0.39,0.13-0.73,0.4-1.02l2.11-2.08c0.14-0.12,0.3-0.23,0.46-0.31s0.35-0.12,0.56-0.12
				h1.89c0.39,0,0.72,0.13,0.98,0.4c0.26,0.27,0.39,0.61,0.39,1.02V264.17z"/>
			<path class="st0" d="M891.02,264.17c0,0.39-0.14,0.73-0.42,1.01c-0.28,0.28-0.62,0.42-1.01,0.42h-8.62
				c-0.74,0-1.43-0.19-2.06-0.56c-0.63-0.37-1.13-0.87-1.5-1.49c-0.37-0.62-0.56-1.3-0.56-2.04v-2.82c0-0.85,0.25-1.63,0.74-2.36
				c0.5-0.72,1.16-1.23,1.98-1.52l7.44-2.79c0.21-0.06,0.31-0.22,0.31-0.46v-2.79c0-0.29-0.13-0.43-0.4-0.43h-5.95
				c-0.1,0-0.2,0.04-0.29,0.12c-0.09,0.08-0.14,0.19-0.14,0.31v0.84c0,0.39-0.14,0.72-0.42,0.99c-0.28,0.27-0.62,0.4-1.01,0.4h-0.84
				c-0.39,0-0.73-0.13-1.01-0.4c-0.28-0.27-0.42-0.6-0.42-0.99v-0.84c0-0.76,0.19-1.46,0.56-2.08c0.37-0.62,0.87-1.12,1.5-1.49
				s1.32-0.56,2.06-0.56h5.95c0.74,0,1.43,0.19,2.05,0.56s1.12,0.87,1.49,1.49c0.37,0.62,0.56,1.31,0.56,2.08v2.79
				c0,0.87-0.25,1.66-0.74,2.39c-0.5,0.72-1.15,1.23-1.95,1.52l-7.47,2.79c-0.21,0.06-0.31,0.21-0.31,0.43v2.82
				c0,0.1,0.05,0.2,0.14,0.29c0.09,0.09,0.19,0.14,0.29,0.14h8.62c0.39,0,0.73,0.13,1.01,0.4c0.28,0.27,0.42,0.61,0.42,1.02V264.17z
				"/>
		</g>
	</g>
</g>
</svg>
